<mxfile host="app.diagrams.net" modified="2021-06-18T19:27:09.004Z" agent="5.0 (Windows NT 10.0; Win64; x64) AppleWebKit/537.36 (KHTML, like Gecko) Chrome/91.0.4472.106 Safari/537.36" etag="vR6pyxV8fhnFtCmuovc4" version="14.8.0" type="github">
  <diagram id="mNEl9u3-95446WdEaaLx" name="Page-1">
    <mxGraphModel dx="1316" dy="729" grid="1" gridSize="10" guides="1" tooltips="1" connect="1" arrows="1" fold="1" page="1" pageScale="1" pageWidth="850" pageHeight="1100" math="0" shadow="0">
      <root>
        <mxCell id="0" />
        <mxCell id="1" parent="0" />
        <mxCell id="M0NY5Tk3JTq9GxFoojHe-6" value="" style="rounded=1;whiteSpace=wrap;html=1;fillColor=#f5f5f5;strokeColor=#666666;fontColor=#333333;" vertex="1" parent="1">
          <mxGeometry x="160" y="40" width="400" height="640" as="geometry" />
        </mxCell>
        <mxCell id="M0NY5Tk3JTq9GxFoojHe-7" value="" style="rounded=0;whiteSpace=wrap;html=1;fillColor=#dae8fc;strokeColor=#6c8ebf;" vertex="1" parent="1">
          <mxGeometry x="160" y="110" width="400" height="500" as="geometry" />
        </mxCell>
        <mxCell id="M0NY5Tk3JTq9GxFoojHe-8" value="" style="rounded=1;whiteSpace=wrap;html=1;" vertex="1" parent="1">
          <mxGeometry x="209" y="53" width="310" height="40" as="geometry" />
        </mxCell>
        <mxCell id="M0NY5Tk3JTq9GxFoojHe-9" value="" style="triangle;whiteSpace=wrap;html=1;rotation=-180;" vertex="1" parent="1">
          <mxGeometry x="220" y="630" width="40" height="30" as="geometry" />
        </mxCell>
        <mxCell id="M0NY5Tk3JTq9GxFoojHe-10" value="" style="ellipse;whiteSpace=wrap;html=1;aspect=fixed;" vertex="1" parent="1">
          <mxGeometry x="361.88" y="630" width="26.25" height="26.25" as="geometry" />
        </mxCell>
        <mxCell id="M0NY5Tk3JTq9GxFoojHe-11" value="" style="whiteSpace=wrap;html=1;aspect=fixed;" vertex="1" parent="1">
          <mxGeometry x="506.25" y="630" width="23.75" height="23.75" as="geometry" />
        </mxCell>
        <mxCell id="M0NY5Tk3JTq9GxFoojHe-14" value="&lt;font style=&quot;font-size: 15px&quot;&gt;Name&lt;/font&gt;" style="text;html=1;strokeColor=none;fillColor=none;align=left;verticalAlign=middle;whiteSpace=wrap;rounded=0;" vertex="1" parent="1">
          <mxGeometry x="190" y="140" width="100" height="20" as="geometry" />
        </mxCell>
        <mxCell id="M0NY5Tk3JTq9GxFoojHe-17" value="" style="rounded=1;whiteSpace=wrap;html=1;" vertex="1" parent="1">
          <mxGeometry x="190" y="170" width="350" height="30" as="geometry" />
        </mxCell>
        <mxCell id="M0NY5Tk3JTq9GxFoojHe-18" value="&lt;font style=&quot;font-size: 15px&quot;&gt;Date of birth&lt;/font&gt;" style="text;html=1;strokeColor=none;fillColor=none;align=left;verticalAlign=middle;whiteSpace=wrap;rounded=0;" vertex="1" parent="1">
          <mxGeometry x="190" y="210" width="100" height="20" as="geometry" />
        </mxCell>
        <mxCell id="M0NY5Tk3JTq9GxFoojHe-19" value="" style="rounded=1;whiteSpace=wrap;html=1;" vertex="1" parent="1">
          <mxGeometry x="190" y="240" width="350" height="30" as="geometry" />
        </mxCell>
        <mxCell id="M0NY5Tk3JTq9GxFoojHe-22" value="&lt;font style=&quot;font-size: 15px&quot;&gt;Education&lt;/font&gt;" style="text;html=1;strokeColor=none;fillColor=none;align=left;verticalAlign=middle;whiteSpace=wrap;rounded=0;" vertex="1" parent="1">
          <mxGeometry x="190" y="290" width="100" height="20" as="geometry" />
        </mxCell>
        <mxCell id="M0NY5Tk3JTq9GxFoojHe-23" value="" style="rounded=1;whiteSpace=wrap;html=1;" vertex="1" parent="1">
          <mxGeometry x="190" y="320" width="350" height="30" as="geometry" />
        </mxCell>
        <mxCell id="M0NY5Tk3JTq9GxFoojHe-24" value="&lt;span style=&quot;font-size: 15px&quot;&gt;State&lt;/span&gt;" style="text;html=1;strokeColor=none;fillColor=none;align=left;verticalAlign=middle;whiteSpace=wrap;rounded=0;" vertex="1" parent="1">
          <mxGeometry x="190" y="370" width="100" height="20" as="geometry" />
        </mxCell>
        <mxCell id="M0NY5Tk3JTq9GxFoojHe-25" value="" style="rounded=1;whiteSpace=wrap;html=1;" vertex="1" parent="1">
          <mxGeometry x="190" y="400" width="350" height="30" as="geometry" />
        </mxCell>
        <mxCell id="M0NY5Tk3JTq9GxFoojHe-27" value="" style="rounded=0;whiteSpace=wrap;html=1;" vertex="1" parent="1">
          <mxGeometry x="160" y="110" width="400" height="30" as="geometry" />
        </mxCell>
        <mxCell id="M0NY5Tk3JTq9GxFoojHe-15" value="&lt;font style=&quot;font-size: 18px&quot;&gt;User Creation&lt;/font&gt;" style="text;html=1;strokeColor=none;fillColor=none;align=center;verticalAlign=middle;whiteSpace=wrap;rounded=0;" vertex="1" parent="1">
          <mxGeometry x="280" y="115" width="170" height="20" as="geometry" />
        </mxCell>
        <mxCell id="M0NY5Tk3JTq9GxFoojHe-28" value="&lt;span style=&quot;font-size: 15px&quot;&gt;Country&lt;/span&gt;" style="text;html=1;strokeColor=none;fillColor=none;align=left;verticalAlign=middle;whiteSpace=wrap;rounded=0;" vertex="1" parent="1">
          <mxGeometry x="190" y="450" width="100" height="20" as="geometry" />
        </mxCell>
        <mxCell id="M0NY5Tk3JTq9GxFoojHe-29" value="" style="rounded=1;whiteSpace=wrap;html=1;" vertex="1" parent="1">
          <mxGeometry x="190" y="480" width="350" height="30" as="geometry" />
        </mxCell>
        <mxCell id="M0NY5Tk3JTq9GxFoojHe-30" value="Save" style="rounded=1;whiteSpace=wrap;html=1;fillColor=#d5e8d4;strokeColor=#82b366;" vertex="1" parent="1">
          <mxGeometry x="210" y="540" width="130" height="30" as="geometry" />
        </mxCell>
        <mxCell id="M0NY5Tk3JTq9GxFoojHe-32" value="Cancel" style="rounded=1;whiteSpace=wrap;html=1;strokeColor=#666666;fontColor=#333333;fillColor=#BABABA;" vertex="1" parent="1">
          <mxGeometry x="388.13" y="540" width="130" height="30" as="geometry" />
        </mxCell>
      </root>
    </mxGraphModel>
  </diagram>
</mxfile>
